<svg xmlns="http://www.w3.org/2000/svg" viewBox="0 0 100 100">
  <!-- 6 swirling aperture blades, yellow, transparent background -->
  <g fill="#fbbf24">
    <path d="M50,50 C48,36 42,24 30,18 C20,13 10,20 12,32 C14,42 26,46 38,44 C44,43 49,47 50,50 Z"/>
    <path d="M50,50 C62,48 74,42 80,30 C85,20 78,10 66,12 C56,14 52,26 54,38 C55,44 51,49 50,50 Z"/>
    <path d="M50,50 C64,52 76,58 82,70 C87,80 80,90 68,88 C58,86 54,74 56,62 C57,56 53,51 50,50 Z"/>
    <path d="M50,50 C52,64 58,76 70,82 C80,87 90,80 88,68 C86,58 74,54 62,56 C56,57 51,53 50,50 Z"/>
    <path d="M50,50 C38,52 26,58 20,70 C15,80 22,90 34,88 C44,86 48,74 46,62 C45,56 49,51 50,50 Z"/>
    <path d="M50,50 C36,48 24,42 18,30 C13,20 20,10 32,12 C42,14 46,26 44,38 C43,44 47,49 50,50 Z"/>
  </g>
</svg>
